<mxfile host="Electron" modified="2024-04-30T08:13:36.578Z" agent="Mozilla/5.0 (Macintosh; Intel Mac OS X 10_15_7) AppleWebKit/537.36 (KHTML, like Gecko) draw.io/22.0.2 Chrome/114.0.5735.289 Electron/25.8.4 Safari/537.36" etag="xrGFI4jAmhWWnT_Qf6l9" version="22.0.2" type="device" pages="5">
  <diagram id="C5RBs43oDa-KdzZeNtuy" name="resource processing">
    <mxGraphModel dx="1833" dy="659" grid="1" gridSize="10" guides="1" tooltips="1" connect="1" arrows="1" fold="1" page="1" pageScale="1" pageWidth="827" pageHeight="1169" math="0" shadow="0">
      <root>
        <mxCell id="WIyWlLk6GJQsqaUBKTNV-0" />
        <mxCell id="WIyWlLk6GJQsqaUBKTNV-1" parent="WIyWlLk6GJQsqaUBKTNV-0" />
        <mxCell id="uww7Cz6BIvtftRIAeeSQ-18" style="edgeStyle=orthogonalEdgeStyle;rounded=0;orthogonalLoop=1;jettySize=auto;html=1;entryX=0;entryY=0.75;entryDx=0;entryDy=0;exitX=0.25;exitY=1;exitDx=0;exitDy=0;dashed=1;" parent="WIyWlLk6GJQsqaUBKTNV-1" source="uww7Cz6BIvtftRIAeeSQ-8" target="FyDkydMQuA0Bi_pBf0Gb-14" edge="1">
          <mxGeometry relative="1" as="geometry" />
        </mxCell>
        <mxCell id="uww7Cz6BIvtftRIAeeSQ-17" style="edgeStyle=orthogonalEdgeStyle;rounded=0;orthogonalLoop=1;jettySize=auto;html=1;entryX=0;entryY=0.5;entryDx=0;entryDy=0;exitX=0.5;exitY=1;exitDx=0;exitDy=0;dashed=1;" parent="WIyWlLk6GJQsqaUBKTNV-1" source="uww7Cz6BIvtftRIAeeSQ-11" target="FyDkydMQuA0Bi_pBf0Gb-14" edge="1">
          <mxGeometry relative="1" as="geometry" />
        </mxCell>
        <mxCell id="FyDkydMQuA0Bi_pBf0Gb-4" value="" style="edgeStyle=orthogonalEdgeStyle;rounded=0;orthogonalLoop=1;jettySize=auto;html=1;" parent="WIyWlLk6GJQsqaUBKTNV-1" source="WIyWlLk6GJQsqaUBKTNV-3" target="FyDkydMQuA0Bi_pBf0Gb-3" edge="1">
          <mxGeometry relative="1" as="geometry" />
        </mxCell>
        <mxCell id="WIyWlLk6GJQsqaUBKTNV-3" value="resource configuration logic" style="rounded=1;whiteSpace=wrap;html=1;fontSize=12;glass=0;strokeWidth=1;shadow=0;" parent="WIyWlLk6GJQsqaUBKTNV-1" vertex="1">
          <mxGeometry x="240" y="65" width="120" height="40" as="geometry" />
        </mxCell>
        <mxCell id="FyDkydMQuA0Bi_pBf0Gb-18" value="" style="edgeStyle=orthogonalEdgeStyle;rounded=0;orthogonalLoop=1;jettySize=auto;html=1;" parent="WIyWlLk6GJQsqaUBKTNV-1" source="FyDkydMQuA0Bi_pBf0Gb-3" target="FyDkydMQuA0Bi_pBf0Gb-17" edge="1">
          <mxGeometry relative="1" as="geometry" />
        </mxCell>
        <mxCell id="FyDkydMQuA0Bi_pBf0Gb-3" value="deploy resources" style="rounded=1;whiteSpace=wrap;html=1;fontSize=12;glass=0;strokeWidth=1;shadow=0;" parent="WIyWlLk6GJQsqaUBKTNV-1" vertex="1">
          <mxGeometry x="400" y="65" width="120" height="40" as="geometry" />
        </mxCell>
        <mxCell id="FyDkydMQuA0Bi_pBf0Gb-7" style="edgeStyle=orthogonalEdgeStyle;rounded=0;orthogonalLoop=1;jettySize=auto;html=1;entryX=0;entryY=0.5;entryDx=0;entryDy=0;" parent="WIyWlLk6GJQsqaUBKTNV-1" source="FyDkydMQuA0Bi_pBf0Gb-5" target="WIyWlLk6GJQsqaUBKTNV-3" edge="1">
          <mxGeometry relative="1" as="geometry">
            <mxPoint x="170" y="125" as="targetPoint" />
          </mxGeometry>
        </mxCell>
        <mxCell id="FyDkydMQuA0Bi_pBf0Gb-5" value="load required objects" style="rounded=1;whiteSpace=wrap;html=1;fontSize=12;glass=0;strokeWidth=1;shadow=0;" parent="WIyWlLk6GJQsqaUBKTNV-1" vertex="1">
          <mxGeometry x="80" y="65" width="120" height="40" as="geometry" />
        </mxCell>
        <mxCell id="uww7Cz6BIvtftRIAeeSQ-0" style="edgeStyle=orthogonalEdgeStyle;rounded=0;orthogonalLoop=1;jettySize=auto;html=1;entryX=0.5;entryY=0;entryDx=0;entryDy=0;" parent="WIyWlLk6GJQsqaUBKTNV-1" source="FyDkydMQuA0Bi_pBf0Gb-6" target="WIyWlLk6GJQsqaUBKTNV-3" edge="1">
          <mxGeometry relative="1" as="geometry" />
        </mxCell>
        <mxCell id="FyDkydMQuA0Bi_pBf0Gb-6" value="configuration" style="rounded=1;whiteSpace=wrap;html=1;fontSize=12;glass=0;strokeWidth=1;shadow=0;" parent="WIyWlLk6GJQsqaUBKTNV-1" vertex="1">
          <mxGeometry x="240" width="120" height="40" as="geometry" />
        </mxCell>
        <mxCell id="FyDkydMQuA0Bi_pBf0Gb-11" value="" style="edgeStyle=orthogonalEdgeStyle;rounded=0;orthogonalLoop=1;jettySize=auto;html=1;" parent="WIyWlLk6GJQsqaUBKTNV-1" source="FyDkydMQuA0Bi_pBf0Gb-9" target="FyDkydMQuA0Bi_pBf0Gb-10" edge="1">
          <mxGeometry relative="1" as="geometry" />
        </mxCell>
        <mxCell id="FyDkydMQuA0Bi_pBf0Gb-9" value="Compartments" style="rounded=1;whiteSpace=wrap;html=1;fontSize=12;glass=0;strokeWidth=1;shadow=0;" parent="WIyWlLk6GJQsqaUBKTNV-1" vertex="1">
          <mxGeometry x="80" y="320" width="120" height="40" as="geometry" />
        </mxCell>
        <mxCell id="uww7Cz6BIvtftRIAeeSQ-15" style="edgeStyle=orthogonalEdgeStyle;rounded=0;orthogonalLoop=1;jettySize=auto;html=1;" parent="WIyWlLk6GJQsqaUBKTNV-1" source="FyDkydMQuA0Bi_pBf0Gb-10" target="FyDkydMQuA0Bi_pBf0Gb-14" edge="1">
          <mxGeometry relative="1" as="geometry" />
        </mxCell>
        <mxCell id="FyDkydMQuA0Bi_pBf0Gb-10" value="VCNs" style="rounded=1;whiteSpace=wrap;html=1;fontSize=12;glass=0;strokeWidth=1;shadow=0;" parent="WIyWlLk6GJQsqaUBKTNV-1" vertex="1">
          <mxGeometry x="80" y="400" width="120" height="40" as="geometry" />
        </mxCell>
        <mxCell id="FyDkydMQuA0Bi_pBf0Gb-14" value="Subnets" style="rounded=1;whiteSpace=wrap;html=1;fontSize=12;glass=0;strokeWidth=1;shadow=0;" parent="WIyWlLk6GJQsqaUBKTNV-1" vertex="1">
          <mxGeometry x="80" y="545" width="120" height="40" as="geometry" />
        </mxCell>
        <mxCell id="FyDkydMQuA0Bi_pBf0Gb-17" value="store created objects" style="rounded=1;whiteSpace=wrap;html=1;fontSize=12;glass=0;strokeWidth=1;shadow=0;" parent="WIyWlLk6GJQsqaUBKTNV-1" vertex="1">
          <mxGeometry x="560" y="65" width="120" height="40" as="geometry" />
        </mxCell>
        <mxCell id="uww7Cz6BIvtftRIAeeSQ-14" style="edgeStyle=orthogonalEdgeStyle;rounded=0;orthogonalLoop=1;jettySize=auto;html=1;entryX=0.25;entryY=1;entryDx=0;entryDy=0;" parent="WIyWlLk6GJQsqaUBKTNV-1" source="uww7Cz6BIvtftRIAeeSQ-1" target="FyDkydMQuA0Bi_pBf0Gb-10" edge="1">
          <mxGeometry relative="1" as="geometry" />
        </mxCell>
        <mxCell id="uww7Cz6BIvtftRIAeeSQ-16" style="edgeStyle=orthogonalEdgeStyle;rounded=0;orthogonalLoop=1;jettySize=auto;html=1;entryX=0;entryY=0.25;entryDx=0;entryDy=0;exitX=0.75;exitY=1;exitDx=0;exitDy=0;dashed=1;" parent="WIyWlLk6GJQsqaUBKTNV-1" source="uww7Cz6BIvtftRIAeeSQ-1" target="FyDkydMQuA0Bi_pBf0Gb-14" edge="1">
          <mxGeometry relative="1" as="geometry" />
        </mxCell>
        <mxCell id="uww7Cz6BIvtftRIAeeSQ-1" value="Route Tables" style="rounded=1;whiteSpace=wrap;html=1;fontSize=12;glass=0;strokeWidth=1;shadow=0;" parent="WIyWlLk6GJQsqaUBKTNV-1" vertex="1">
          <mxGeometry x="-80" y="490" width="120" height="40" as="geometry" />
        </mxCell>
        <mxCell id="uww7Cz6BIvtftRIAeeSQ-10" style="edgeStyle=orthogonalEdgeStyle;rounded=0;orthogonalLoop=1;jettySize=auto;html=1;entryX=1;entryY=0.25;entryDx=0;entryDy=0;" parent="WIyWlLk6GJQsqaUBKTNV-1" source="uww7Cz6BIvtftRIAeeSQ-3" target="FyDkydMQuA0Bi_pBf0Gb-10" edge="1">
          <mxGeometry relative="1" as="geometry" />
        </mxCell>
        <mxCell id="uww7Cz6BIvtftRIAeeSQ-3" value="DHCP Options" style="rounded=1;whiteSpace=wrap;html=1;fontSize=12;glass=0;strokeWidth=1;shadow=0;" parent="WIyWlLk6GJQsqaUBKTNV-1" vertex="1">
          <mxGeometry x="240" y="370" width="120" height="40" as="geometry" />
        </mxCell>
        <mxCell id="uww7Cz6BIvtftRIAeeSQ-7" style="edgeStyle=orthogonalEdgeStyle;rounded=0;orthogonalLoop=1;jettySize=auto;html=1;entryX=1;entryY=0.75;entryDx=0;entryDy=0;" parent="WIyWlLk6GJQsqaUBKTNV-1" source="uww7Cz6BIvtftRIAeeSQ-6" target="FyDkydMQuA0Bi_pBf0Gb-10" edge="1">
          <mxGeometry relative="1" as="geometry" />
        </mxCell>
        <mxCell id="uww7Cz6BIvtftRIAeeSQ-6" value="Gateways" style="rounded=1;whiteSpace=wrap;html=1;fontSize=12;glass=0;strokeWidth=1;shadow=0;" parent="WIyWlLk6GJQsqaUBKTNV-1" vertex="1">
          <mxGeometry x="240" y="430" width="120" height="40" as="geometry" />
        </mxCell>
        <mxCell id="uww7Cz6BIvtftRIAeeSQ-12" style="edgeStyle=orthogonalEdgeStyle;rounded=0;orthogonalLoop=1;jettySize=auto;html=1;entryX=0;entryY=0.25;entryDx=0;entryDy=0;" parent="WIyWlLk6GJQsqaUBKTNV-1" source="uww7Cz6BIvtftRIAeeSQ-8" target="FyDkydMQuA0Bi_pBf0Gb-10" edge="1">
          <mxGeometry relative="1" as="geometry" />
        </mxCell>
        <mxCell id="uww7Cz6BIvtftRIAeeSQ-8" value="Security Lists" style="rounded=1;whiteSpace=wrap;html=1;fontSize=12;glass=0;strokeWidth=1;shadow=0;" parent="WIyWlLk6GJQsqaUBKTNV-1" vertex="1">
          <mxGeometry x="-80" y="370" width="120" height="40" as="geometry" />
        </mxCell>
        <mxCell id="uww7Cz6BIvtftRIAeeSQ-13" style="edgeStyle=orthogonalEdgeStyle;rounded=0;orthogonalLoop=1;jettySize=auto;html=1;entryX=0;entryY=0.75;entryDx=0;entryDy=0;" parent="WIyWlLk6GJQsqaUBKTNV-1" source="uww7Cz6BIvtftRIAeeSQ-11" target="FyDkydMQuA0Bi_pBf0Gb-10" edge="1">
          <mxGeometry relative="1" as="geometry" />
        </mxCell>
        <mxCell id="uww7Cz6BIvtftRIAeeSQ-11" value="Network Security Groups" style="rounded=1;whiteSpace=wrap;html=1;fontSize=12;glass=0;strokeWidth=1;shadow=0;" parent="WIyWlLk6GJQsqaUBKTNV-1" vertex="1">
          <mxGeometry x="-80" y="430" width="120" height="40" as="geometry" />
        </mxCell>
      </root>
    </mxGraphModel>
  </diagram>
  <diagram id="ZDSUvi06mEhfbXnj943g" name="regexp processing">
    <mxGraphModel dx="2011" dy="1944" grid="1" gridSize="10" guides="1" tooltips="1" connect="1" arrows="1" fold="1" page="1" pageScale="1" pageWidth="827" pageHeight="1169" math="0" shadow="0">
      <root>
        <mxCell id="0" />
        <mxCell id="1" parent="0" />
        <mxCell id="9sZPNVt2lW0HyVqAQaku-10" value="" style="edgeStyle=orthogonalEdgeStyle;rounded=0;orthogonalLoop=1;jettySize=auto;html=1;" edge="1" parent="1" source="9sZPNVt2lW0HyVqAQaku-1" target="9sZPNVt2lW0HyVqAQaku-9">
          <mxGeometry relative="1" as="geometry" />
        </mxCell>
        <mxCell id="9sZPNVt2lW0HyVqAQaku-11" value="" style="edgeStyle=orthogonalEdgeStyle;rounded=0;orthogonalLoop=1;jettySize=auto;html=1;" edge="1" parent="1" source="9sZPNVt2lW0HyVqAQaku-1" target="9sZPNVt2lW0HyVqAQaku-9">
          <mxGeometry relative="1" as="geometry" />
        </mxCell>
        <mxCell id="9sZPNVt2lW0HyVqAQaku-13" value="" style="edgeStyle=orthogonalEdgeStyle;rounded=0;orthogonalLoop=1;jettySize=auto;html=1;exitX=0.75;exitY=1;exitDx=0;exitDy=0;" edge="1" parent="1" source="9sZPNVt2lW0HyVqAQaku-1" target="9sZPNVt2lW0HyVqAQaku-12">
          <mxGeometry relative="1" as="geometry" />
        </mxCell>
        <mxCell id="9sZPNVt2lW0HyVqAQaku-1" value="xxx" style="whiteSpace=wrap;html=1;" vertex="1" parent="1">
          <mxGeometry x="280" y="140" width="120" height="60" as="geometry" />
        </mxCell>
        <mxCell id="9sZPNVt2lW0HyVqAQaku-5" value="" style="edgeStyle=orthogonalEdgeStyle;rounded=0;orthogonalLoop=1;jettySize=auto;html=1;exitX=0.25;exitY=1;exitDx=0;exitDy=0;" edge="1" parent="1" source="9sZPNVt2lW0HyVqAQaku-1" target="9sZPNVt2lW0HyVqAQaku-4">
          <mxGeometry relative="1" as="geometry" />
        </mxCell>
        <mxCell id="9sZPNVt2lW0HyVqAQaku-6" style="edgeStyle=orthogonalEdgeStyle;rounded=0;orthogonalLoop=1;jettySize=auto;html=1;" edge="1" parent="1" source="9sZPNVt2lW0HyVqAQaku-2" target="9sZPNVt2lW0HyVqAQaku-1">
          <mxGeometry relative="1" as="geometry" />
        </mxCell>
        <mxCell id="9sZPNVt2lW0HyVqAQaku-27" value="" style="edgeStyle=orthogonalEdgeStyle;rounded=0;orthogonalLoop=1;jettySize=auto;html=1;startArrow=classic;startFill=1;endArrow=none;endFill=0;" edge="1" parent="1" source="9sZPNVt2lW0HyVqAQaku-2" target="9sZPNVt2lW0HyVqAQaku-26">
          <mxGeometry relative="1" as="geometry" />
        </mxCell>
        <mxCell id="9sZPNVt2lW0HyVqAQaku-2" value="xxx" style="whiteSpace=wrap;html=1;" vertex="1" parent="1">
          <mxGeometry x="280" y="40" width="120" height="60" as="geometry" />
        </mxCell>
        <mxCell id="9sZPNVt2lW0HyVqAQaku-16" style="edgeStyle=orthogonalEdgeStyle;rounded=0;orthogonalLoop=1;jettySize=auto;html=1;entryX=0.25;entryY=0;entryDx=0;entryDy=0;exitX=0.5;exitY=1;exitDx=0;exitDy=0;" edge="1" parent="1" source="9sZPNVt2lW0HyVqAQaku-4" target="9sZPNVt2lW0HyVqAQaku-14">
          <mxGeometry relative="1" as="geometry" />
        </mxCell>
        <mxCell id="9sZPNVt2lW0HyVqAQaku-4" value="process&lt;br&gt;regex_1" style="whiteSpace=wrap;html=1;" vertex="1" parent="1">
          <mxGeometry x="120" y="240" width="120" height="60" as="geometry" />
        </mxCell>
        <mxCell id="9sZPNVt2lW0HyVqAQaku-15" value="" style="edgeStyle=orthogonalEdgeStyle;rounded=0;orthogonalLoop=1;jettySize=auto;html=1;" edge="1" parent="1" source="9sZPNVt2lW0HyVqAQaku-9" target="9sZPNVt2lW0HyVqAQaku-14">
          <mxGeometry relative="1" as="geometry" />
        </mxCell>
        <mxCell id="9sZPNVt2lW0HyVqAQaku-9" value="process&lt;br style=&quot;border-color: var(--border-color);&quot;&gt;regex_2" style="whiteSpace=wrap;html=1;" vertex="1" parent="1">
          <mxGeometry x="280" y="240" width="120" height="60" as="geometry" />
        </mxCell>
        <mxCell id="9sZPNVt2lW0HyVqAQaku-17" style="edgeStyle=orthogonalEdgeStyle;rounded=0;orthogonalLoop=1;jettySize=auto;html=1;entryX=0.75;entryY=0;entryDx=0;entryDy=0;exitX=0.5;exitY=1;exitDx=0;exitDy=0;" edge="1" parent="1" source="9sZPNVt2lW0HyVqAQaku-12" target="9sZPNVt2lW0HyVqAQaku-14">
          <mxGeometry relative="1" as="geometry" />
        </mxCell>
        <mxCell id="9sZPNVt2lW0HyVqAQaku-12" value="process&lt;br style=&quot;border-color: var(--border-color);&quot;&gt;regex_N" style="whiteSpace=wrap;html=1;" vertex="1" parent="1">
          <mxGeometry x="440" y="240" width="120" height="60" as="geometry" />
        </mxCell>
        <mxCell id="9sZPNVt2lW0HyVqAQaku-19" style="edgeStyle=orthogonalEdgeStyle;rounded=0;orthogonalLoop=1;jettySize=auto;html=1;" edge="1" parent="1" source="9sZPNVt2lW0HyVqAQaku-14" target="9sZPNVt2lW0HyVqAQaku-18">
          <mxGeometry relative="1" as="geometry" />
        </mxCell>
        <mxCell id="9sZPNVt2lW0HyVqAQaku-28" style="edgeStyle=orthogonalEdgeStyle;rounded=0;orthogonalLoop=1;jettySize=auto;html=1;exitX=0.75;exitY=0;exitDx=0;exitDy=0;" edge="1" parent="1" source="9sZPNVt2lW0HyVqAQaku-14">
          <mxGeometry relative="1" as="geometry">
            <mxPoint x="370" y="350" as="targetPoint" />
          </mxGeometry>
        </mxCell>
        <mxCell id="9sZPNVt2lW0HyVqAQaku-14" value="" style="whiteSpace=wrap;html=1;" vertex="1" parent="1">
          <mxGeometry x="280" y="340" width="120" height="10" as="geometry" />
        </mxCell>
        <mxCell id="9sZPNVt2lW0HyVqAQaku-21" value="" style="edgeStyle=orthogonalEdgeStyle;rounded=0;orthogonalLoop=1;jettySize=auto;html=1;" edge="1" parent="1" source="9sZPNVt2lW0HyVqAQaku-18" target="9sZPNVt2lW0HyVqAQaku-20">
          <mxGeometry relative="1" as="geometry" />
        </mxCell>
        <mxCell id="9sZPNVt2lW0HyVqAQaku-18" value="register&lt;br&gt;records not in&amp;nbsp;&lt;br&gt;known regexp" style="whiteSpace=wrap;html=1;" vertex="1" parent="1">
          <mxGeometry x="280" y="390" width="120" height="60" as="geometry" />
        </mxCell>
        <mxCell id="9sZPNVt2lW0HyVqAQaku-23" value="" style="edgeStyle=orthogonalEdgeStyle;rounded=0;orthogonalLoop=1;jettySize=auto;html=1;" edge="1" parent="1" source="9sZPNVt2lW0HyVqAQaku-20" target="9sZPNVt2lW0HyVqAQaku-22">
          <mxGeometry relative="1" as="geometry" />
        </mxCell>
        <mxCell id="9sZPNVt2lW0HyVqAQaku-20" value="sort keys" style="whiteSpace=wrap;html=1;" vertex="1" parent="1">
          <mxGeometry x="280" y="490" width="120" height="60" as="geometry" />
        </mxCell>
        <mxCell id="9sZPNVt2lW0HyVqAQaku-25" value="" style="edgeStyle=orthogonalEdgeStyle;rounded=0;orthogonalLoop=1;jettySize=auto;html=1;" edge="1" parent="1" source="9sZPNVt2lW0HyVqAQaku-22" target="9sZPNVt2lW0HyVqAQaku-24">
          <mxGeometry relative="1" as="geometry" />
        </mxCell>
        <mxCell id="9sZPNVt2lW0HyVqAQaku-22" value="combine all processed records" style="whiteSpace=wrap;html=1;" vertex="1" parent="1">
          <mxGeometry x="280" y="590" width="120" height="60" as="geometry" />
        </mxCell>
        <mxCell id="9sZPNVt2lW0HyVqAQaku-24" value="" style="ellipse;whiteSpace=wrap;html=1;strokeWidth=5;" vertex="1" parent="1">
          <mxGeometry x="330" y="680" width="20" height="20" as="geometry" />
        </mxCell>
        <mxCell id="9sZPNVt2lW0HyVqAQaku-26" value="" style="ellipse;whiteSpace=wrap;html=1;" vertex="1" parent="1">
          <mxGeometry x="330" y="-10" width="20" height="20" as="geometry" />
        </mxCell>
        <mxCell id="wtr7_R7KqPRlVxYKIXwO-10" value="" style="edgeStyle=orthogonalEdgeStyle;rounded=0;orthogonalLoop=1;jettySize=auto;html=1;" edge="1" parent="1" source="wtr7_R7KqPRlVxYKIXwO-4" target="wtr7_R7KqPRlVxYKIXwO-9">
          <mxGeometry relative="1" as="geometry" />
        </mxCell>
        <mxCell id="wtr7_R7KqPRlVxYKIXwO-4" value="substitute&amp;nbsp;&lt;br style=&quot;border-color: var(--border-color);&quot;&gt;&lt;span style=&quot;border-color: var(--border-color);&quot;&gt;CIDR labels&lt;/span&gt;" style="whiteSpace=wrap;html=1;" vertex="1" parent="1">
          <mxGeometry x="-240" y="140" width="120" height="60" as="geometry" />
        </mxCell>
        <mxCell id="wtr7_R7KqPRlVxYKIXwO-5" style="edgeStyle=orthogonalEdgeStyle;rounded=0;orthogonalLoop=1;jettySize=auto;html=1;" edge="1" parent="1" source="wtr7_R7KqPRlVxYKIXwO-7" target="wtr7_R7KqPRlVxYKIXwO-4">
          <mxGeometry relative="1" as="geometry" />
        </mxCell>
        <mxCell id="wtr7_R7KqPRlVxYKIXwO-6" value="" style="edgeStyle=orthogonalEdgeStyle;rounded=0;orthogonalLoop=1;jettySize=auto;html=1;startArrow=classic;startFill=1;endArrow=none;endFill=0;" edge="1" parent="1" source="wtr7_R7KqPRlVxYKIXwO-7" target="wtr7_R7KqPRlVxYKIXwO-8">
          <mxGeometry relative="1" as="geometry" />
        </mxCell>
        <mxCell id="wtr7_R7KqPRlVxYKIXwO-7" value="add attribute&lt;br style=&quot;border-color: var(--border-color);&quot;&gt;_posittion" style="whiteSpace=wrap;html=1;" vertex="1" parent="1">
          <mxGeometry x="-240" y="40" width="120" height="60" as="geometry" />
        </mxCell>
        <mxCell id="wtr7_R7KqPRlVxYKIXwO-8" value="" style="ellipse;whiteSpace=wrap;html=1;" vertex="1" parent="1">
          <mxGeometry x="-190" y="-10" width="20" height="20" as="geometry" />
        </mxCell>
        <mxCell id="wtr7_R7KqPRlVxYKIXwO-9" value="split&lt;br&gt;multiply CIDRs" style="whiteSpace=wrap;html=1;" vertex="1" parent="1">
          <mxGeometry x="-240" y="240" width="120" height="60" as="geometry" />
        </mxCell>
      </root>
    </mxGraphModel>
  </diagram>
  <diagram id="2MngQ6kwXd73ygePmb7p" name="SL">
    <mxGraphModel dx="1833" dy="659" grid="1" gridSize="10" guides="1" tooltips="1" connect="1" arrows="1" fold="1" page="1" pageScale="1" pageWidth="827" pageHeight="1169" math="0" shadow="0">
      <root>
        <mxCell id="0" />
        <mxCell id="1" parent="0" />
        <mxCell id="6gOQgbSpZckYTmi1h33r-1" value="SL:&lt;br&gt;&lt;br&gt;permit tcp/22 to internet&amp;nbsp;&lt;br&gt;permit tcp/22 stateless to internet&lt;br&gt;&lt;br&gt;&lt;br&gt;allow tcp/22 from /spoke2/vcn&amp;nbsp;&lt;br style=&quot;border-color: var(--border-color);&quot;&gt;&lt;br&gt;&lt;br&gt;allow one config tcp/22 from /spoke2/vcn&amp;nbsp;&amp;nbsp;" style="text;whiteSpace=wrap;html=1;fontSize=18;fontFamily=Courier New;fontStyle=1" vertex="1" parent="1">
          <mxGeometry x="-50" y="60" width="460" height="240" as="geometry" />
        </mxCell>
        <mxCell id="6gOQgbSpZckYTmi1h33r-4" style="rounded=0;orthogonalLoop=1;jettySize=auto;html=1;exitX=0.25;exitY=1;exitDx=0;exitDy=0;" edge="1" parent="1" source="6gOQgbSpZckYTmi1h33r-2" target="6gOQgbSpZckYTmi1h33r-3">
          <mxGeometry relative="1" as="geometry" />
        </mxCell>
        <mxCell id="6gOQgbSpZckYTmi1h33r-2" value="&lt;span style=&quot;color: rgb(0, 0, 0); font-family: &amp;quot;Courier New&amp;quot;; font-size: 18px; font-style: normal; font-variant-ligatures: normal; font-variant-caps: normal; font-weight: 700; letter-spacing: normal; orphans: 2; text-align: left; text-indent: 0px; text-transform: none; widows: 2; word-spacing: 0px; -webkit-text-stroke-width: 0px; background-color: rgb(251, 251, 251); text-decoration-thickness: initial; text-decoration-style: initial; text-decoration-color: initial; float: none; display: inline !important;&quot;&gt;@/spoke1/vcn&lt;br&gt;allow conjoint tcp/22 from /spoke2/vcn&amp;nbsp;&amp;nbsp;&lt;/span&gt;" style="text;whiteSpace=wrap;html=1;" vertex="1" parent="1">
          <mxGeometry x="-50" y="340" width="490" height="50" as="geometry" />
        </mxCell>
        <mxCell id="6gOQgbSpZckYTmi1h33r-3" value="&lt;span style=&quot;color: rgb(0, 0, 0); font-family: &amp;quot;Courier New&amp;quot;; font-size: 18px; font-style: normal; font-variant-ligatures: normal; font-variant-caps: normal; font-weight: 700; letter-spacing: normal; orphans: 2; text-align: left; text-indent: 0px; text-transform: none; widows: 2; word-spacing: 0px; -webkit-text-stroke-width: 0px; background-color: rgb(251, 251, 251); text-decoration-thickness: initial; text-decoration-style: initial; text-decoration-color: initial; float: none; display: inline !important;&quot;&gt;@/spoke1/vcn&lt;br&gt;allow tcp/22 from /spoke2/vcn&lt;/span&gt;" style="text;whiteSpace=wrap;html=1;" vertex="1" parent="1">
          <mxGeometry x="-160" y="500" width="350" height="50" as="geometry" />
        </mxCell>
        <mxCell id="6gOQgbSpZckYTmi1h33r-6" style="rounded=0;orthogonalLoop=1;jettySize=auto;html=1;exitX=0.75;exitY=1;exitDx=0;exitDy=0;" edge="1" target="6gOQgbSpZckYTmi1h33r-8" parent="1" source="6gOQgbSpZckYTmi1h33r-2">
          <mxGeometry relative="1" as="geometry">
            <mxPoint x="547" y="390" as="sourcePoint" />
          </mxGeometry>
        </mxCell>
        <mxCell id="6gOQgbSpZckYTmi1h33r-7" value="@ /spoke2/vcn" style="edgeLabel;html=1;align=center;verticalAlign=middle;resizable=0;points=[];" vertex="1" connectable="0" parent="6gOQgbSpZckYTmi1h33r-6">
          <mxGeometry x="-0.0592" y="-1" relative="1" as="geometry">
            <mxPoint as="offset" />
          </mxGeometry>
        </mxCell>
        <mxCell id="6gOQgbSpZckYTmi1h33r-8" value="&lt;span style=&quot;color: rgb(0, 0, 0); font-family: &amp;quot;Courier New&amp;quot;; font-size: 18px; font-style: normal; font-variant-ligatures: normal; font-variant-caps: normal; font-weight: 700; letter-spacing: normal; orphans: 2; text-align: left; text-indent: 0px; text-transform: none; widows: 2; word-spacing: 0px; -webkit-text-stroke-width: 0px; background-color: rgb(251, 251, 251); text-decoration-thickness: initial; text-decoration-style: initial; text-decoration-color: initial; float: none; display: inline !important;&quot;&gt;@/spoke2/vcn&lt;br&gt;permit tcp/22 to /spoke1/vcn&lt;/span&gt;" style="text;whiteSpace=wrap;html=1;" vertex="1" parent="1">
          <mxGeometry x="220" y="500" width="350" height="50" as="geometry" />
        </mxCell>
      </root>
    </mxGraphModel>
  </diagram>
  <diagram id="i18eToL87gk2GefQBOfE" name="NSG">
    <mxGraphModel dx="1246" dy="659" grid="1" gridSize="10" guides="1" tooltips="1" connect="1" arrows="1" fold="1" page="1" pageScale="1" pageWidth="827" pageHeight="1169" math="0" shadow="0">
      <root>
        <mxCell id="0" />
        <mxCell id="1" parent="0" />
        <mxCell id="RIo0sVY6l78d_OTE3vbG-2" value="NSG:&lt;br&gt;/sandbox/cmpx_network/vcn_test1/nsg_super_user" style="text;whiteSpace=wrap;html=1;fontSize=18;fontFamily=Courier New;fontStyle=1" parent="1" vertex="1">
          <mxGeometry x="80" y="60" width="460" height="40" as="geometry" />
        </mxCell>
      </root>
    </mxGraphModel>
  </diagram>
  <diagram id="YCcnWV1-wBm4b-SYf3L4" name="VCN RT">
    <mxGraphModel dx="1006" dy="659" grid="1" gridSize="10" guides="1" tooltips="1" connect="1" arrows="1" fold="1" page="1" pageScale="1" pageWidth="827" pageHeight="1169" math="0" shadow="0">
      <root>
        <mxCell id="0" />
        <mxCell id="1" parent="0" />
        <mxCell id="mnzkfZp_5vYaxpE4iJ5v-1" value="Route Table:&lt;br&gt;/spoke1/vcn_test1/rt_central_systems" style="text;whiteSpace=wrap;html=1;fontSize=18;fontFamily=Courier New;fontStyle=1" parent="1" vertex="1">
          <mxGeometry x="90" y="70" width="460" height="40" as="geometry" />
        </mxCell>
        <mxCell id="mnzkfZp_5vYaxpE4iJ5v-2" value="route 10.1.0.0/16 via DRG /hub1/drg_central /* regular CIDR */&lt;br&gt;&lt;br&gt;route /spoke2/sub_db via LPG /spoke1/lpg_spoke2 /* CIDR collected from Subnet */&lt;br&gt;&lt;br&gt;route internet via NAT /spoke1/nat_internet-access /* CIDR specified with label */&lt;br&gt;&lt;br&gt;route internet via IGW /spoke1/igw_internet-access /* CIDR specified with label */&lt;br style=&quot;border-color: var(--border-color);&quot;&gt;&lt;br&gt;route oci_object_storage via SG /spoke1/sg_osn-storage /* route object storage */&amp;nbsp;&lt;br&gt;&lt;br&gt;route oci_all_osn_services via SG /spoke1/sg_osn /* route all osn */&lt;br&gt;&lt;br&gt;&lt;br&gt;Note that oci_object_storage, and oci_all_osn_services are special labels that will be converted to the proper ones incl. region code.&lt;br&gt;&lt;br&gt;Rejected:&lt;br&gt;- rejected as keys should be just keys. Thre is nothing like compartment prefix. If operator will configure keys with compartments it will be like this, but more generic format is when compartment is not encoded into URI&amp;nbsp;&amp;nbsp;&lt;br&gt;route /cmp-network/sub_db via LPG /spoke1/lpg_spoke2 /* CIDR collected from Subnet with compartment */" style="text;whiteSpace=wrap;html=1;fontSize=18;fontFamily=Courier New;fontStyle=1" parent="1" vertex="1">
          <mxGeometry x="90" y="170" width="1140" height="530" as="geometry" />
        </mxCell>
      </root>
    </mxGraphModel>
  </diagram>
</mxfile>
